<?xml version="1.0" encoding="UTF-8" standalone="no"?>
<!DOCTYPE svg PUBLIC "-//W3C//DTD SVG 1.1//EN" "http://www.w3.org/Graphics/SVG/1.1/DTD/svg11.dtd">
<svg width="100%" height="100%" viewBox="0 0 177 220" version="1.1" xmlns="http://www.w3.org/2000/svg" xmlns:xlink="http://www.w3.org/1999/xlink" xml:space="preserve" xmlns:serif="http://www.serif.com/" style="fill-rule:evenodd;clip-rule:evenodd;stroke-linejoin:round;stroke-miterlimit:2;">
    <g transform="matrix(0.1,0,0,-0.1,-47,253.857)">
        <path d="M1300,2526C1340,2548 1364,2543 1452,2496C1498,2472 1589,2424 1655,2390C1721,2356 1831,2297 1900,2260C1969,2223 2061,2174 2105,2150C2239,2078 2230,2089 2230,1996C2230,1901 2242,1914 2078,1825L1965,1763L1960,1509C1953,1200 1948,1179 1843,1054C1806,1009 1686,912 1580,840C1561,827 1510,790 1467,758C1425,726 1380,698 1367,695C1350,690 1319,706 1239,762C1182,802 1121,844 1105,854C1089,865 1071,877 1065,882C1060,887 1024,914 985,942C836,1052 768,1153 750,1285C745,1324 743,1436 745,1534C747,1633 744,1723 740,1735C732,1756 691,1780 528,1862C479,1886 470,1905 470,1984C470,2061 479,2072 583,2128C617,2146 666,2175 691,2191C716,2207 740,2220 744,2220C749,2220 764,2228 778,2239C805,2257 858,2287 985,2355C1024,2376 1105,2420 1165,2453C1226,2486 1286,2519 1300,2526ZM1350.95,2319.06C1344.95,2314.06 1309.95,2293.06 1270.95,2273.06C1232.95,2252.06 1187.95,2228.06 1170.95,2218.06C1154.95,2208.06 1111.95,2185.06 1075.95,2166.06C1039.95,2147.06 971.953,2110.06 924.953,2084.06C787.953,2011.06 781.953,2008.06 762.953,2008.06C741.953,2008.06 744.953,1988.06 766.953,1978.06C774.953,1974.06 806.953,1958.06 838.953,1943.06C901.953,1912.06 900.953,1912.06 990.953,1967.06C1012.95,1981.06 1057.95,2006.06 1090.95,2023.06C1123.95,2041.06 1166.95,2064.06 1185.95,2075.06C1204.95,2086.06 1247.95,2110.06 1280.95,2128.06C1313.95,2146.06 1346.95,2165.06 1353.95,2171.06C1361.95,2177.06 1369.95,2177.06 1378.95,2170.06C1384.95,2165.06 1480.95,2114.06 1590.95,2058.06C1700.95,2001.06 1802.95,1947.06 1817.95,1937.06C1831.95,1926.06 1846.95,1918.06 1849.95,1918.06C1851.95,1918.06 1881.95,1934.06 1914.95,1953.06C1946.95,1972.06 1981.95,1988.06 1990.95,1988.06C2014.95,1988.06 2003.95,2012.06 1977.95,2016.06C1950.95,2020.06 1402.95,2298.06 1381.95,2319.06C1369.95,2330.06 1362.95,2330.06 1350.95,2319.06ZM1304.72,1938.82C1279.72,1922.82 1223.72,1890.82 1179.72,1867.82C1135.72,1843.82 1087.72,1815.82 1072.72,1805.82C1058.72,1794.82 1041.72,1786.82 1036.72,1786.82C1030.72,1786.82 1009.72,1771.82 989.718,1752.82L953.718,1718.82L956.718,1499.82C959.718,1293.82 960.718,1278.82 983.718,1233.82C1010.72,1177.82 1085.72,1111.82 1238.72,1010.82C1294.72,973.818 1341.72,939.818 1342.72,934.818C1352.72,912.818 1399.72,934.818 1518.72,1020.82C1658.72,1120.82 1719.72,1178.82 1755.72,1248.82C1777.72,1289.82 1778.72,1301.82 1777.72,1497.82C1776.72,1745.82 1775.72,1746.82 1677.72,1798.82C1607.72,1835.82 1352.72,1966.82 1350.72,1966.82C1349.72,1966.82 1329.72,1953.82 1304.72,1938.82Z" style="fill:url(#_Linear1);"/>
    </g>
    <g transform="matrix(0.1,0,0,-0.1,-47,253.857)">
        <path d="M480,1765C471,1754 469,1688 473,1498C479,1206 483,1172 517,1076C569,930 653,816 777,723C798,708 823,687 834,678C871,644 1209,418 1291,372C1353,337 1375,333 1399,354C1408,361 1494,420 1590,485C1999,762 2069,819 2139,937C2214,1065 2223,1114 2227,1458C2230,1649 2225.65,1783.49 2219.65,1783.49C2201.65,1783.49 2242.73,1785.81 2208.73,1785.81C2184.73,1785.81 2076,1741 2040,1712L2015,1692L2009,1438C2003,1172 1998,1141 1949,1054C1907,979 1806,897 1540,720C1488,685 1430,644 1412,628C1394,613 1372,600 1363,600C1354,600 1315,621 1276,647C1177,713 1006,833 1000,840C997,844 977,858 956,873C895,914 783,1026 754,1076C707,1156 699,1208 694,1450C692,1589 686,1683 679,1696C668,1718 543,1780 511,1780C501,1780 487,1773 480,1765Z" style="fill:url(#_Linear2);fill-rule:nonzero;"/>
    </g>
    <defs>
        <linearGradient id="_Linear1" x1="0" y1="0" x2="1" y2="0" gradientUnits="userSpaceOnUse" gradientTransform="matrix(1760.2,0,0,1844.43,470,1616.35)"><stop offset="0" style="stop-color:rgb(90,132,195);stop-opacity:1"/><stop offset="0.5" style="stop-color:rgb(88,123,185);stop-opacity:1"/><stop offset="1" style="stop-color:rgb(83,94,153);stop-opacity:1"/></linearGradient>
        <linearGradient id="_Linear2" x1="0" y1="0" x2="1" y2="0" gradientUnits="userSpaceOnUse" gradientTransform="matrix(1756.94,0,0,1444.62,471.036,1063.5)"><stop offset="0" style="stop-color:rgb(92,132,195);stop-opacity:1"/><stop offset="1" style="stop-color:rgb(86,96,155);stop-opacity:1"/></linearGradient>
    </defs>
</svg>
